<?xml version="1.0" standalone="no"?>
<!DOCTYPE svg PUBLIC "-//W3C//DTD SVG 20010904//EN"
 "http://www.w3.org/TR/2001/REC-SVG-20010904/DTD/svg10.dtd">
<svg version="1.0" xmlns="http://www.w3.org/2000/svg"
 width="464.000000pt" height="462.000000pt" viewBox="0 0 464.000000 462.000000"
 preserveAspectRatio="xMidYMid meet">

<g transform="translate(0.000000,462.000000) scale(0.100000,-0.100000)"
fill="#000000" stroke="none">
<path d="M2235 4608 c-3 -7 -6 -96 -7 -198 l-3 -185 -195 -5 -195 -5 0 -30 0
-30 233 -3 232 -2 -2 232 -3 233 -28 3 c-16 2 -29 -2 -32 -10z"/>
<path d="M2367 4614 c-4 -4 -7 -110 -7 -236 l0 -228 233 2 232 3 0 30 0 30
-195 5 -195 5 -5 195 -5 195 -25 3 c-14 2 -29 0 -33 -4z"/>
<path d="M1834 4076 c-3 -8 -4 -23 -2 -33 3 -16 20 -18 198 -23 l195 -5 3
-392 2 -392 -37 -7 c-229 -39 -395 -122 -552 -276 -124 -123 -210 -272 -263
-454 -20 -69 -23 -101 -22 -244 1 -183 14 -253 75 -392 75 -174 233 -354 397
-452 94 -56 244 -110 352 -127 116 -18 306 -6 413 25 344 102 587 350 689 702
20 69 23 101 22 249 0 155 -3 178 -28 260 -116 386 -406 640 -809 709 l-37 7
2 392 3 392 195 5 195 5 0 30 0 30 -232 3 -233 2 -2 -427 -3 -428 -25 0 -25 0
-3 428 -2 427 -230 0 c-192 0 -232 -2 -236 -14z m346 -950 c0 -2 -30 -21 -66
-42 -96 -56 -223 -180 -294 -285 -33 -50 -60 -95 -60 -100 0 -5 -47 -9 -105
-9 l-106 0 43 63 c90 133 213 238 359 306 99 46 229 85 229 67z m120 -216 l0
-220 -245 0 c-135 0 -245 4 -245 8 0 19 81 132 140 195 81 87 166 150 264 198
44 22 81 39 83 39 2 0 3 -99 3 -220z m148 181 c145 -73 293 -207 375 -340 l37
-61 -250 0 -250 0 0 220 c0 121 2 220 5 220 3 0 40 -17 83 -39z m146 14 c199
-65 367 -190 478 -356 l36 -54 -101 -3 c-64 -2 -103 1 -105 8 -2 5 -26 45 -54
87 -70 107 -176 214 -282 284 -99 66 -93 73 28 34z m-874 -481 c0 -3 -11 -43
-24 -88 -20 -66 -46 -205 -46 -247 0 -5 -47 -9 -105 -9 l-105 0 0 39 c0 67 26
175 69 284 10 27 11 27 111 27 55 0 100 -3 100 -6z m580 -169 l0 -175 -302 2
-302 3 2 50 c4 64 26 164 53 238 l21 57 264 0 264 0 0 -175z m603 138 c23 -59
45 -143 52 -198 3 -27 8 -65 11 -82 l5 -33 -306 0 -305 0 0 175 0 175 264 0
264 0 15 -37z m254 0 c29 -70 53 -167 60 -240 l6 -73 -107 0 c-78 0 -106 3
-106 13 0 42 -32 211 -50 261 -11 33 -20 63 -20 68 0 4 45 8 101 8 l100 0 16
-37z m-857 -543 l0 -170 -265 0 -265 0 -13 33 c-35 84 -74 296 -57 307 5 3
141 4 304 2 l296 -3 0 -169z m664 117 c-8 -68 -39 -207 -58 -252 l-15 -35
-265 0 -266 0 0 169 c0 103 4 171 10 173 5 2 142 2 304 0 l295 -3 -5 -52z
m-1310 22 c3 -17 6 -44 6 -59 0 -26 40 -195 55 -232 7 -16 -2 -18 -97 -18
l-104 0 -22 63 c-30 86 -52 184 -52 235 l0 42 104 0 104 0 6 -31z m1563 -44
c-4 -42 -21 -118 -38 -170 l-32 -95 -104 0 c-85 0 -104 3 -100 14 28 72 67
257 67 317 0 5 48 9 106 9 l107 0 -6 -75z m-1442 -372 c83 -143 200 -267 333
-351 40 -25 69 -48 63 -50 -16 -5 -145 35 -217 68 -155 70 -323 222 -390 352
l-15 28 100 0 99 0 27 -47z m525 -178 l0 -225 -55 24 c-167 74 -354 245 -429
394 l-17 32 251 0 250 0 0 -225z m544 193 c-75 -149 -262 -320 -429 -394 l-55
-24 0 225 0 225 250 0 251 0 -17 -32z m266 26 c0 -18 -84 -129 -145 -190 -130
-130 -298 -222 -455 -248 -39 -7 -44 -12 63 59 123 81 258 230 321 353 l17 32
99 0 c55 0 100 -3 100 -6z"/>
<path d="M1275 3311 c-170 -20 -335 -66 -500 -139 l-90 -39 -3 -1012 c-1 -693
1 -1011 8 -1011 6 0 27 7 48 16 94 39 296 85 457 104 129 14 389 12 536 -5
153 -18 347 -55 490 -94 l106 -28 149 37 c168 43 337 73 504 91 144 15 473 7
595 -15 116 -21 272 -61 336 -86 27 -11 54 -20 59 -20 7 0 9 365 8 1012 l-3
1012 -113 48 c-232 98 -399 132 -654 133 -97 0 -179 -3 -182 -6 -4 -4 1 -20
11 -38 l18 -31 151 0 c230 0 444 -44 647 -134 l57 -26 0 -934 0 -935 -47 15
c-195 60 -391 87 -633 88 -275 0 -505 -30 -787 -104 l-111 -30 -137 35 c-505
130 -969 135 -1378 16 l-67 -20 2 937 3 936 95 38 c204 84 330 109 580 117
l194 6 15 27 c9 15 13 30 10 33 -10 10 -300 14 -374 6z"/>
<path d="M468 2085 l-3 -1096 -35 48 c-20 26 -71 104 -115 172 -93 145 -91
146 -100 -51 -5 -106 -3 -143 9 -183 8 -27 13 -51 11 -54 -3 -2 -55 17 -116
42 -69 29 -109 41 -106 32 62 -160 93 -210 216 -345 l71 -78 -52 -66 c-29 -38
-47 -70 -42 -75 5 -5 54 -27 109 -49 472 -189 1314 -353 1905 -369 435 -12
902 51 1505 203 249 63 688 195 707 213 5 4 -13 36 -38 71 -31 42 -44 68 -38
76 5 6 46 54 92 105 46 52 95 113 109 137 21 36 83 175 83 187 0 2 -50 -17
-110 -42 -61 -25 -112 -44 -115 -42 -2 3 3 27 11 54 12 40 14 77 9 183 -3 73
-10 143 -14 154 -6 18 -22 -2 -99 -123 -51 -79 -101 -155 -112 -169 -19 -25
-20 -19 -20 1068 l0 1092 -60 0 -60 0 0 -1101 c0 -1044 -1 -1101 -17 -1096
-10 3 -74 27 -143 53 -230 85 -425 118 -700 117 -228 -1 -530 -42 -726 -99
-51 -15 -52 -15 -57 -60 -5 -51 -30 -91 -70 -114 -24 -13 -30 -13 -54 0 -40
23 -65 63 -70 114 -5 45 -6 45 -57 60 -28 8 -105 26 -171 40 -496 103 -954 74
-1329 -85 -37 -16 -72 -29 -77 -29 -5 0 -9 459 -9 1100 l0 1100 -60 0 -60 0
-2 -1095z m-51 -1095 c48 -62 52 -72 55 -128 l3 -60 194 78 c305 124 458 155
771 155 231 0 321 -9 547 -56 182 -38 193 -42 193 -74 0 -33 21 -73 55 -105
23 -22 36 -25 95 -25 59 0 72 3 95 25 34 32 55 72 55 105 0 32 7 35 190 73
227 47 317 57 550 57 313 0 466 -31 771 -155 l194 -78 5 72 c5 66 8 75 50 126
25 30 67 92 95 137 28 46 53 79 58 74 5 -5 7 -58 5 -119 -3 -104 -5 -113 -40
-181 -21 -39 -34 -71 -30 -71 4 0 56 20 116 45 60 25 113 44 117 43 5 -2 -8
-33 -29 -70 -36 -67 -187 -246 -208 -247 -5 -1 -39 40 -73 89 -35 50 -68 90
-73 90 -5 0 -64 -18 -131 -39 -1225 -393 -2306 -396 -3418 -12 -81 28 -149 51
-152 51 -3 0 -38 -41 -78 -92 l-72 -92 -89 94 c-81 87 -174 230 -149 230 5 0
57 -20 117 -45 59 -25 111 -45 115 -45 5 0 -8 32 -29 71 -35 67 -37 78 -40
176 -5 149 -1 153 61 54 29 -46 75 -114 104 -151z m195 -300 c378 -132 775
-222 1183 -266 199 -22 716 -25 910 -6 451 45 872 131 1329 274 70 22 131 36
135 31 27 -30 181 -253 181 -261 0 -18 -389 -135 -705 -212 -376 -91 -701
-148 -1023 -176 -514 -46 -1296 53 -1977 251 -145 42 -365 121 -365 132 0 6
210 273 215 273 2 0 55 -18 117 -40z"/>
<path d="M4043 642 c-7 -5 -13 -38 -15 -82 l-3 -74 -46 61 c-31 43 -49 59 -58
53 -11 -6 -9 -21 9 -76 12 -38 27 -73 33 -79 11 -11 7 9 -17 88 -8 26 -13 47
-12 47 2 0 24 -27 49 -60 24 -33 47 -57 50 -53 4 3 7 38 7 77 0 78 9 78 35 -1
9 -29 20 -53 25 -53 5 0 -1 30 -14 68 -13 37 -25 72 -27 79 -2 7 -9 9 -16 5z"/>
<path d="M555 535 c-15 -42 -26 -78 -23 -80 2 -2 24 -9 50 -16 58 -16 83 -1
74 42 -3 18 0 32 10 40 21 18 13 52 -16 65 -65 30 -65 30 -95 -51z m80 43 c31
-14 31 -51 0 -56 -31 -4 -59 21 -51 46 8 25 15 27 51 10z m-20 -70 c28 -13 35
-52 10 -62 -13 -5 -75 11 -75 19 0 2 4 15 10 29 11 29 18 31 55 14z"/>
<path d="M3800 542 c0 -16 -3 -57 -6 -91 -5 -43 -3 -61 5 -61 6 0 11 13 11 29
0 25 6 31 35 41 32 11 37 10 54 -12 11 -12 22 -20 25 -17 8 8 -92 133 -110
137 -10 2 -14 -6 -14 -26z m59 -63 c-34 -21 -49 -10 -49 34 l1 42 30 -34 c24
-26 28 -35 18 -42z"/>
<path d="M721 485 c-29 -37 -50 -70 -46 -73 4 -4 13 1 20 12 11 15 21 17 50
12 29 -6 37 -12 42 -37 3 -16 10 -32 16 -36 6 -4 8 0 4 11 -4 10 -7 46 -7 80
0 35 -6 70 -13 80 -11 15 -18 11 -66 -49z m57 -41 c-7 -7 -48 9 -48 18 0 5 10
22 23 37 l22 27 3 -39 c2 -21 2 -41 0 -43z"/>
<path d="M3628 518 l-36 -10 20 -71 c23 -83 44 -114 33 -51 -5 36 -4 42 14 47
13 3 35 -5 61 -24 43 -31 50 -34 50 -20 0 5 -15 19 -34 32 -29 19 -32 25 -20
37 29 28 9 73 -30 71 -12 -1 -37 -5 -58 -11z m66 -4 c29 -11 18 -44 -19 -60
-44 -18 -41 -19 -53 16 -10 28 -9 30 21 39 18 5 33 10 34 10 1 1 8 -2 17 -5z"/>
<path d="M854 438 c-22 -74 -20 -120 2 -57 6 18 16 33 20 32 5 -1 25 -4 46 -8
32 -6 38 -4 53 18 21 33 8 61 -36 76 -58 20 -63 16 -85 -61z m110 25 c12 -30
-6 -45 -46 -40 -22 3 -42 7 -44 10 -2 2 1 17 7 34 10 29 12 30 44 20 19 -5 36
-16 39 -24z"/>
<path d="M3483 482 c-53 -8 -70 -91 -30 -138 49 -57 147 -13 133 60 -13 62
-45 87 -103 78z m66 -38 c41 -52 15 -114 -46 -114 -47 0 -77 98 -38 126 29 21
62 17 84 -12z"/>
<path d="M1010 470 c0 -4 11 -11 25 -14 29 -7 30 -16 10 -82 -8 -27 -15 -55
-15 -62 0 -22 17 -4 24 25 27 108 25 106 59 99 20 -4 28 -3 22 3 -14 13 -125
41 -125 31z"/>
<path d="M3345 448 c-52 -11 -69 -17 -63 -24 3 -2 24 -1 47 5 22 5 41 7 41 5
0 -2 -17 -37 -37 -78 -20 -42 -35 -78 -31 -81 7 -8 111 15 123 27 7 7 1 8 -19
4 -15 -4 -42 -10 -58 -13 l-30 -6 37 72 c44 89 43 100 -10 89z"/>
<path d="M1160 399 c-6 -24 -15 -60 -20 -79 -5 -19 -6 -38 -2 -42 5 -5 17 28
27 72 19 83 15 125 -5 49z"/>
<path d="M3228 425 c-8 -13 22 -165 33 -165 8 0 3 42 -15 125 -7 28 -14 46
-18 40z"/>
<path d="M1238 409 c-26 -14 -22 -45 7 -66 69 -49 70 -50 56 -67 -19 -23 -48
-20 -76 9 -23 22 -25 22 -25 5 0 -35 80 -56 108 -28 25 25 14 57 -28 78 -26
13 -40 27 -40 40 0 29 54 27 74 -2 13 -18 16 -19 16 -6 0 19 -37 48 -60 48 -8
0 -23 -5 -32 -11z"/>
<path d="M3145 348 c-11 -94 -17 -96 -55 -23 -35 65 -60 83 -60 44 0 -42 24
-149 33 -149 5 0 6 11 3 25 -4 14 -9 46 -12 73 l-6 47 34 -59 c19 -33 39 -61
45 -63 7 -3 16 25 23 69 14 78 21 75 34 -14 4 -27 12 -48 17 -48 5 0 7 10 5
23 -3 12 -10 48 -16 80 -16 78 -36 76 -45 -5z"/>
<path d="M1360 391 c0 -6 11 -11 23 -11 33 0 36 -6 27 -48 -18 -84 -21 -112
-11 -112 5 0 15 34 22 75 l12 76 28 -6 c16 -4 29 -2 29 3 0 5 -21 13 -47 16
-27 4 -56 9 -65 12 -10 3 -18 1 -18 -5z"/>
<path d="M2857 363 c-34 -4 -38 -7 -34 -26 3 -12 9 -50 13 -84 3 -35 11 -63
17 -63 6 0 7 16 3 40 l-6 40 40 6 c51 8 52 21 1 16 -33 -3 -40 -1 -46 18 -8
26 7 40 47 40 15 0 30 5 33 10 3 6 -2 9 -12 8 -10 -1 -35 -3 -56 -5z"/>
<path d="M1585 335 c-32 -31 -34 -96 -5 -125 35 -35 110 -22 110 19 0 11 -6 9
-23 -7 -28 -27 -49 -28 -69 -4 -25 29 -28 51 -13 88 12 29 19 34 48 34 25 0
39 -7 50 -22 13 -19 16 -20 16 -6 1 21 -36 48 -67 48 -12 0 -34 -11 -47 -25z"/>
<path d="M2683 340 c-74 -30 -47 -160 33 -160 52 0 88 40 81 88 -7 40 -46 82
-75 81 -9 0 -27 -4 -39 -9z m81 -32 c33 -47 6 -118 -44 -118 -50 0 -81 87 -44
124 23 24 70 20 88 -6z"/>
<path d="M1740 313 c0 -16 -3 -52 -6 -80 -5 -37 -3 -53 5 -53 6 0 11 15 11 33
0 19 2 36 5 39 3 2 24 2 47 -1 43 -6 43 -6 40 -44 -2 -22 1 -37 7 -37 6 0 11
8 11 19 0 10 3 46 7 81 4 47 3 61 -5 56 -7 -4 -12 -21 -12 -38 0 -27 -3 -30
-22 -24 -13 3 -33 6 -45 6 -20 0 -23 5 -23 35 0 19 -4 35 -10 35 -5 0 -10 -12
-10 -27z"/>
<path d="M1908 310 c-13 -44 -9 -118 8 -134 22 -22 91 -21 102 2 12 21 21 142
11 142 -3 0 -10 -28 -13 -62 -8 -71 -18 -88 -51 -88 -34 0 -44 19 -47 95 -2
50 -5 63 -10 45z"/>
<path d="M2520 296 c0 -37 -12 -46 -61 -46 -27 0 -29 3 -29 35 0 19 -4 35 -10
35 -12 0 -12 -103 0 -140 7 -21 8 -18 9 18 l1 43 48 -3 c47 -3 47 -3 50 -40 2
-21 8 -38 14 -38 6 0 8 10 4 23 -3 12 -6 50 -6 85 0 34 -4 62 -10 62 -5 0 -10
-15 -10 -34z"/>
<path d="M2076 274 c-9 -68 -7 -114 4 -114 6 0 10 16 10 36 0 33 2 35 27 32
18 -2 35 -15 51 -38 13 -19 27 -36 33 -38 17 -7 9 16 -17 47 -14 17 -21 31
-16 31 15 0 42 29 42 45 0 27 -31 45 -79 45 l-48 0 -7 -46z m95 26 c41 -23 6
-64 -49 -58 -27 3 -39 25 -28 54 6 16 49 19 77 4z"/>
<path d="M2260 302 c-34 -28 -32 -98 4 -129 15 -13 36 -23 46 -23 23 0 78 45
67 56 -4 4 -14 -2 -23 -14 -21 -31 -69 -29 -90 3 -42 64 29 151 81 99 20 -20
33 -11 15 11 -17 21 -73 19 -100 -3z"/>
</g>
</svg>
